<svg
  viewBox="0 0 64 80"
  width="64"
  height="80"
  xmlns="http://www.w3.org/2000/svg"
>
  <!-- Map pin shape -->
  <path
    d="M32 4
            C17 4 4 16.5 4 32.5
            C4 51 32 76 32 76
            C32 76 60 51 60 32.5
            C60 16.5 47 4 32 4Z"
    fill="#ff5a36"
    stroke="#c13b1c"
    stroke-width="2"
  />
  <!-- White circle background for heart -->
  <circle cx="32" cy="32" r="15" fill="#fff" />
  <!-- Heart shape, rotated -25° around (32,32) -->
  <path
    d="M32 41
            C28 37 20 33 24 27
            C27 22 32 25 32 28
            C32 25 37 22 40 27
            C44 33 36 37 32 41Z"
    fill="#ff5a36"
    transform="rotate(-25 32 32)"
  />
</svg>
